<svg width="59" height="64" viewBox="0 0 59 64" fill="none" xmlns="http://www.w3.org/2000/svg">
<path d="M58.1101 51.6848C58.1101 58.4862 46.4683 63.9999 32.1073 63.9999C17.7464 63.9999 6.10449 58.4862 6.10449 51.6848C6.10449 44.8833 17.7464 39.3697 32.1073 39.3697C46.4683 39.3697 58.1101 44.8833 58.1101 51.6848Z" fill="#22137B"/>
<path d="M58.1101 50.9604C58.1101 57.7618 46.4683 63.2755 32.1073 63.2755C17.7464 63.2755 6.10449 57.7618 6.10449 50.9604C6.10449 44.1589 17.7464 38.6453 32.1073 38.6453C46.4683 38.6453 58.1101 44.1589 58.1101 50.9604Z" fill="#22137B"/>
<path d="M58.1101 50.236C58.1101 57.0374 46.4683 62.5511 32.1073 62.5511C17.7464 62.5511 6.10449 57.0374 6.10449 50.236C6.10449 43.4345 17.7464 37.9208 32.1073 37.9208C46.4683 37.9208 58.1101 43.4345 58.1101 50.236Z" fill="#22137B"/>
<path d="M58.1101 49.5115C58.1101 56.313 46.4683 61.8267 32.1073 61.8267C17.7464 61.8267 6.10449 56.313 6.10449 49.5115C6.10449 42.7101 17.7464 37.1964 32.1073 37.1964C46.4683 37.1964 58.1101 42.7101 58.1101 49.5115Z" fill="#22137B"/>
<path d="M58.1101 48.7871C58.1101 55.5886 46.4683 61.1022 32.1073 61.1022C17.7464 61.1022 6.10449 55.5886 6.10449 48.7871C6.10449 41.9857 17.7464 36.472 32.1073 36.472C46.4683 36.472 58.1101 41.9857 58.1101 48.7871Z" fill="#22137B"/>
<path d="M58.1101 48.0627C58.1101 54.8642 46.4683 60.3778 32.1073 60.3778C17.7464 60.3778 6.10449 54.8642 6.10449 48.0627C6.10449 41.2612 17.7464 35.7476 32.1073 35.7476C46.4683 35.7476 58.1101 41.2612 58.1101 48.0627Z" fill="#22137B"/>
<path d="M58.1101 47.3383C58.1101 54.1397 46.4683 59.6534 32.1073 59.6534C17.7464 59.6534 6.10449 54.1397 6.10449 47.3383C6.10449 40.5368 17.7464 35.0232 32.1073 35.0232C46.4683 35.0232 58.1101 40.5368 58.1101 47.3383Z" fill="#22137B"/>
<path d="M58.1101 46.6139C58.1101 53.4153 46.4683 58.929 32.1073 58.929C17.7464 58.929 6.10449 53.4153 6.10449 46.6139C6.10449 39.8124 17.7464 34.2987 32.1073 34.2987C46.4683 34.2987 58.1101 39.8124 58.1101 46.6139Z" fill="#22137B"/>
<path d="M58.1101 45.8894C58.1101 52.6909 46.4683 58.2046 32.1073 58.2046C17.7464 58.2046 6.10449 52.6909 6.10449 45.8894C6.10449 39.088 17.7464 33.5743 32.1073 33.5743C46.4683 33.5743 58.1101 39.088 58.1101 45.8894Z" fill="#22137B"/>
<path d="M58.1101 45.165C58.1101 51.9665 46.4683 57.4801 32.1073 57.4801C17.7464 57.4801 6.10449 51.9665 6.10449 45.165C6.10449 38.3636 17.7464 32.8499 32.1073 32.8499C46.4683 32.8499 58.1101 38.3636 58.1101 45.165Z" fill="#22137B"/>
<path d="M58.1101 44.4406C58.1101 51.2421 46.4683 56.7557 32.1073 56.7557C17.7464 56.7557 6.10449 51.2421 6.10449 44.4406C6.10449 37.6392 17.7464 32.1255 32.1073 32.1255C46.4683 32.1255 58.1101 37.6392 58.1101 44.4406Z" fill="#22137B"/>
<path d="M58.1101 49.6848C58.1101 56.4862 46.4683 61.9999 32.1073 61.9999C17.7464 61.9999 6.10449 56.4862 6.10449 49.6848C6.10449 42.8833 17.7464 37.3697 32.1073 37.3697C46.4683 37.3697 58.1101 42.8833 58.1101 49.6848Z" fill="#836FFD"/>
<path d="M58.1101 48.9604C58.1101 55.7618 46.4683 61.2755 32.1073 61.2755C17.7464 61.2755 6.10449 55.7618 6.10449 48.9604C6.10449 42.1589 17.7464 36.6453 32.1073 36.6453C46.4683 36.6453 58.1101 42.1589 58.1101 48.9604Z" fill="#836FFD"/>
<path d="M58.1101 48.236C58.1101 55.0374 46.4683 60.5511 32.1073 60.5511C17.7464 60.5511 6.10449 55.0374 6.10449 48.236C6.10449 41.4345 17.7464 35.9208 32.1073 35.9208C46.4683 35.9208 58.1101 41.4345 58.1101 48.236Z" fill="#836FFD"/>
<path d="M58.1101 47.5115C58.1101 54.313 46.4683 59.8267 32.1073 59.8267C17.7464 59.8267 6.10449 54.313 6.10449 47.5115C6.10449 40.7101 17.7464 35.1964 32.1073 35.1964C46.4683 35.1964 58.1101 40.7101 58.1101 47.5115Z" fill="#836FFD"/>
<path d="M58.1101 46.7871C58.1101 53.5886 46.4683 59.1022 32.1073 59.1022C17.7464 59.1022 6.10449 53.5886 6.10449 46.7871C6.10449 39.9857 17.7464 34.472 32.1073 34.472C46.4683 34.472 58.1101 39.9857 58.1101 46.7871Z" fill="#836FFD"/>
<path d="M58.1101 46.0627C58.1101 52.8642 46.4683 58.3778 32.1073 58.3778C17.7464 58.3778 6.10449 52.8642 6.10449 46.0627C6.10449 39.2612 17.7464 33.7476 32.1073 33.7476C46.4683 33.7476 58.1101 39.2612 58.1101 46.0627Z" fill="#836FFD"/>
<path d="M58.1101 45.3383C58.1101 52.1397 46.4683 57.6534 32.1073 57.6534C17.7464 57.6534 6.10449 52.1397 6.10449 45.3383C6.10449 38.5368 17.7464 33.0232 32.1073 33.0232C46.4683 33.0232 58.1101 38.5368 58.1101 45.3383Z" fill="#836FFD"/>
<path d="M58.1101 44.6139C58.1101 51.4153 46.4683 56.929 32.1073 56.929C17.7464 56.929 6.10449 51.4153 6.10449 44.6139C6.10449 37.8124 17.7464 32.2987 32.1073 32.2987C46.4683 32.2987 58.1101 37.8124 58.1101 44.6139Z" fill="#836FFD"/>
<path d="M58.1101 43.8894C58.1101 50.6909 46.4683 56.2046 32.1073 56.2046C17.7464 56.2046 6.10449 50.6909 6.10449 43.8894C6.10449 37.088 17.7464 31.5743 32.1073 31.5743C46.4683 31.5743 58.1101 37.088 58.1101 43.8894Z" fill="#836FFD"/>
<path d="M58.1101 43.165C58.1101 49.9665 46.4683 55.4801 32.1073 55.4801C17.7464 55.4801 6.10449 49.9665 6.10449 43.165C6.10449 36.3636 17.7464 30.8499 32.1073 30.8499C46.4683 30.8499 58.1101 36.3636 58.1101 43.165Z" fill="#836FFD"/>
<path d="M58.1101 42.4406C58.1101 49.2421 46.4683 54.7557 32.1073 54.7557C17.7464 54.7557 6.10449 49.2421 6.10449 42.4406C6.10449 35.6392 17.7464 30.1255 32.1073 30.1255C46.4683 30.1255 58.1101 35.6392 58.1101 42.4406Z" fill="#836FFD"/>
<ellipse cx="32.1073" cy="41.8687" rx="26.0028" ry="11.7432" fill="white"/>
<path d="M37.9786 43.99C37.9786 44.6131 37.5807 45.1401 36.7851 45.5709C36.0036 45.994 34.9451 46.2671 33.6095 46.3902V47.0479C33.6095 47.2556 33.4887 47.421 33.2472 47.5441C33.0198 47.6748 32.7144 47.7402 32.3307 47.7402C31.9613 47.7402 31.6558 47.6748 31.4143 47.5441C31.1728 47.421 31.052 47.2556 31.052 47.0479V46.4248C30.2705 46.3863 29.5104 46.2978 28.7715 46.1594C28.0469 46.0209 27.4075 45.844 26.8534 45.6286C26.6261 45.5517 26.4627 45.467 26.3632 45.3747C26.278 45.2747 26.2354 45.1516 26.2354 45.0055C26.2354 44.8132 26.3419 44.6439 26.555 44.4977C26.7824 44.3516 27.0381 44.2785 27.3223 44.2785C27.5922 44.2785 27.9261 44.34 28.324 44.4631C28.9776 44.6708 29.5956 44.8247 30.1782 44.9247C30.7749 45.017 31.393 45.0632 32.0324 45.0632C32.8849 45.0632 33.5384 44.9785 33.9931 44.8093C34.4478 44.6324 34.6751 44.3862 34.6751 44.0708C34.6751 43.8785 34.5401 43.7208 34.2702 43.5977C34.0144 43.4746 33.6947 43.3785 33.3111 43.3092C32.9275 43.24 32.3734 43.1515 31.6487 43.0438C30.5973 42.8977 29.7306 42.7515 29.0486 42.6053C28.3666 42.4592 27.777 42.2284 27.2797 41.913C26.7966 41.5976 26.555 41.1745 26.555 40.6437C26.555 40.0206 26.96 39.486 27.7699 39.0398C28.5939 38.5936 29.6667 38.309 30.988 38.1859V37.5282C30.988 37.3205 31.1088 37.1551 31.3504 37.032C31.5919 36.9012 31.8974 36.8358 32.2668 36.8358C32.6504 36.8358 32.9559 36.9012 33.1832 37.032C33.4248 37.1551 33.5456 37.3205 33.5456 37.5282V38.1628C34.8243 38.2551 36.0249 38.5167 37.1474 38.9475C37.3605 39.0244 37.5097 39.1129 37.5949 39.2129C37.6944 39.3129 37.7441 39.4321 37.7441 39.5706C37.7441 39.7629 37.6305 39.9321 37.4031 40.0783C37.19 40.2245 36.9414 40.2975 36.6572 40.2975C36.5009 40.2975 36.3517 40.286 36.2096 40.2629C36.0817 40.2398 35.897 40.1898 35.6555 40.1129C35.073 39.9129 34.5472 39.7629 34.0784 39.6629C33.6237 39.5629 33.0625 39.5129 32.3947 39.5129C31.6274 39.5129 31.0094 39.6052 30.5405 39.7898C30.0858 39.9744 29.8585 40.2206 29.8585 40.5283C29.8585 40.7437 29.9935 40.9206 30.2634 41.0591C30.5334 41.1899 30.8744 41.2937 31.2864 41.3707C31.6985 41.4476 32.2739 41.5361 33.0127 41.6361C34.0499 41.7745 34.8953 41.9168 35.5489 42.063C36.2167 42.2015 36.7851 42.4284 37.2539 42.7438C37.737 43.0515 37.9786 43.4669 37.9786 43.99Z" fill="#5236FF"/>
<path d="M58.1101 36.2639C58.1101 43.0653 46.4683 48.579 32.1073 48.579C17.7464 48.579 6.10449 43.0653 6.10449 36.2639C6.10449 29.4624 17.7464 23.9488 32.1073 23.9488C46.4683 23.9488 58.1101 29.4624 58.1101 36.2639Z" fill="#836FFD"/>
<path d="M58.1101 35.5395C58.1101 42.3409 46.4683 47.8546 32.1073 47.8546C17.7464 47.8546 6.10449 42.3409 6.10449 35.5395C6.10449 28.738 17.7464 23.2244 32.1073 23.2244C46.4683 23.2244 58.1101 28.738 58.1101 35.5395Z" fill="#836FFD"/>
<path d="M58.1101 34.8151C58.1101 41.6165 46.4683 47.1302 32.1073 47.1302C17.7464 47.1302 6.10449 41.6165 6.10449 34.8151C6.10449 28.0136 17.7464 22.4999 32.1073 22.4999C46.4683 22.4999 58.1101 28.0136 58.1101 34.8151Z" fill="#836FFD"/>
<path d="M58.1101 34.0906C58.1101 40.8921 46.4683 46.4058 32.1073 46.4058C17.7464 46.4058 6.10449 40.8921 6.10449 34.0906C6.10449 27.2892 17.7464 21.7755 32.1073 21.7755C46.4683 21.7755 58.1101 27.2892 58.1101 34.0906Z" fill="#836FFD"/>
<path d="M58.1101 33.3662C58.1101 40.1677 46.4683 45.6813 32.1073 45.6813C17.7464 45.6813 6.10449 40.1677 6.10449 33.3662C6.10449 26.5648 17.7464 21.0511 32.1073 21.0511C46.4683 21.0511 58.1101 26.5648 58.1101 33.3662Z" fill="#836FFD"/>
<path d="M58.1101 32.6418C58.1101 39.4433 46.4683 44.9569 32.1073 44.9569C17.7464 44.9569 6.10449 39.4433 6.10449 32.6418C6.10449 25.8404 17.7464 20.3267 32.1073 20.3267C46.4683 20.3267 58.1101 25.8404 58.1101 32.6418Z" fill="#836FFD"/>
<path d="M58.1101 31.9174C58.1101 38.7188 46.4683 44.2325 32.1073 44.2325C17.7464 44.2325 6.10449 38.7188 6.10449 31.9174C6.10449 25.1159 17.7464 19.6023 32.1073 19.6023C46.4683 19.6023 58.1101 25.1159 58.1101 31.9174Z" fill="#836FFD"/>
<path d="M58.1101 31.193C58.1101 37.9944 46.4683 43.5081 32.1073 43.5081C17.7464 43.5081 6.10449 37.9944 6.10449 31.193C6.10449 24.3915 17.7464 18.8778 32.1073 18.8778C46.4683 18.8778 58.1101 24.3915 58.1101 31.193Z" fill="#836FFD"/>
<path d="M58.1101 30.4685C58.1101 37.27 46.4683 42.7837 32.1073 42.7837C17.7464 42.7837 6.10449 37.27 6.10449 30.4685C6.10449 23.6671 17.7464 18.1534 32.1073 18.1534C46.4683 18.1534 58.1101 23.6671 58.1101 30.4685Z" fill="#836FFD"/>
<path d="M58.1101 29.7441C58.1101 36.5456 46.4683 42.0592 32.1073 42.0592C17.7464 42.0592 6.10449 36.5456 6.10449 29.7441C6.10449 22.9427 17.7464 17.429 32.1073 17.429C46.4683 17.429 58.1101 22.9427 58.1101 29.7441Z" fill="#836FFD"/>
<path d="M58.1101 29.0197C58.1101 35.8212 46.4683 41.3348 32.1073 41.3348C17.7464 41.3348 6.10449 35.8212 6.10449 29.0197C6.10449 22.2183 17.7464 16.7046 32.1073 16.7046C46.4683 16.7046 58.1101 22.2183 58.1101 29.0197Z" fill="#836FFD"/>
<ellipse cx="32.1073" cy="28.4478" rx="26.0028" ry="11.7432" fill="white"/>
<path d="M37.9786 30.5691C37.9786 31.1922 37.5807 31.7192 36.7851 32.15C36.0036 32.5731 34.9451 32.8462 33.6095 32.9693V33.627C33.6095 33.8347 33.4887 34.0001 33.2472 34.1232C33.0198 34.2539 32.7144 34.3193 32.3307 34.3193C31.9613 34.3193 31.6558 34.2539 31.4143 34.1232C31.1728 34.0001 31.052 33.8347 31.052 33.627V33.0039C30.2705 32.9654 29.5104 32.8769 28.7715 32.7385C28.0469 32.6 27.4075 32.4231 26.8534 32.2077C26.6261 32.1308 26.4627 32.0461 26.3632 31.9538C26.278 31.8538 26.2354 31.7307 26.2354 31.5846C26.2354 31.3923 26.3419 31.223 26.555 31.0769C26.7824 30.9307 27.0381 30.8576 27.3223 30.8576C27.5922 30.8576 27.9261 30.9192 28.324 31.0422C28.9776 31.2499 29.5956 31.4038 30.1782 31.5038C30.7749 31.5961 31.393 31.6423 32.0324 31.6423C32.8849 31.6423 33.5384 31.5576 33.9931 31.3884C34.4478 31.2115 34.6751 30.9653 34.6751 30.6499C34.6751 30.4576 34.5401 30.2999 34.2702 30.1768C34.0144 30.0537 33.6947 29.9576 33.3111 29.8883C32.9275 29.8191 32.3734 29.7306 31.6487 29.6229C30.5973 29.4768 29.7306 29.3306 29.0486 29.1844C28.3666 29.0383 27.777 28.8075 27.2797 28.4921C26.7966 28.1767 26.555 27.7536 26.555 27.2228C26.555 26.5997 26.96 26.0651 27.7699 25.6189C28.5939 25.1727 29.6667 24.8881 30.988 24.765V24.1073C30.988 23.8996 31.1088 23.7342 31.3504 23.6111C31.5919 23.4803 31.8974 23.4149 32.2668 23.4149C32.6504 23.4149 32.9559 23.4803 33.1832 23.6111C33.4248 23.7342 33.5456 23.8996 33.5456 24.1073V24.7419C34.8243 24.8342 36.0249 25.0958 37.1474 25.5266C37.3605 25.6035 37.5097 25.692 37.5949 25.792C37.6944 25.892 37.7441 26.0112 37.7441 26.1497C37.7441 26.342 37.6305 26.5112 37.4031 26.6574C37.19 26.8036 36.9414 26.8766 36.6572 26.8766C36.5009 26.8766 36.3517 26.8651 36.2096 26.842C36.0817 26.8189 35.897 26.7689 35.6555 26.692C35.073 26.492 34.5472 26.342 34.0784 26.242C33.6237 26.142 33.0625 26.092 32.3947 26.092C31.6274 26.092 31.0094 26.1843 30.5405 26.3689C30.0858 26.5535 29.8585 26.7997 29.8585 27.1074C29.8585 27.3228 29.9935 27.4997 30.2634 27.6382C30.5334 27.769 30.8744 27.8728 31.2864 27.9498C31.6985 28.0267 32.2739 28.1152 33.0127 28.2152C34.0499 28.3536 34.8953 28.4959 35.5489 28.6421C36.2167 28.7806 36.7851 29.0075 37.2539 29.3229C37.737 29.6306 37.9786 30.046 37.9786 30.5691Z" fill="#5236FF"/>
<path d="M52.2381 20.3269C52.2381 27.1283 40.5962 32.642 26.2352 32.642C11.8743 32.642 0.232422 27.1283 0.232422 20.3269C0.232422 13.5254 11.8743 8.01177 26.2352 8.01177C40.5962 8.01177 52.2381 13.5254 52.2381 20.3269Z" fill="#836FFD"/>
<path d="M52.2381 19.6025C52.2381 26.4039 40.5962 31.9176 26.2352 31.9176C11.8743 31.9176 0.232422 26.4039 0.232422 19.6025C0.232422 12.801 11.8743 7.28735 26.2352 7.28735C40.5962 7.28735 52.2381 12.801 52.2381 19.6025Z" fill="#836FFD"/>
<path d="M52.2381 18.878C52.2381 25.6795 40.5962 31.1932 26.2352 31.1932C11.8743 31.1932 0.232422 25.6795 0.232422 18.878C0.232422 12.0766 11.8743 6.56293 26.2352 6.56293C40.5962 6.56293 52.2381 12.0766 52.2381 18.878Z" fill="#836FFD"/>
<path d="M52.2381 18.1536C52.2381 24.9551 40.5962 30.4687 26.2352 30.4687C11.8743 30.4687 0.232422 24.9551 0.232422 18.1536C0.232422 11.3522 11.8743 5.83851 26.2352 5.83851C40.5962 5.83851 52.2381 11.3522 52.2381 18.1536Z" fill="#836FFD"/>
<path d="M52.2381 17.4292C52.2381 24.2307 40.5962 29.7443 26.2352 29.7443C11.8743 29.7443 0.232422 24.2307 0.232422 17.4292C0.232422 10.6278 11.8743 5.11409 26.2352 5.11409C40.5962 5.11409 52.2381 10.6278 52.2381 17.4292Z" fill="#836FFD"/>
<path d="M52.2381 16.7048C52.2381 23.5062 40.5962 29.0199 26.2352 29.0199C11.8743 29.0199 0.232422 23.5062 0.232422 16.7048C0.232422 9.90334 11.8743 4.38967 26.2352 4.38967C40.5962 4.38967 52.2381 9.90334 52.2381 16.7048Z" fill="#836FFD"/>
<path d="M52.2381 15.9804C52.2381 22.7818 40.5962 28.2955 26.2352 28.2955C11.8743 28.2955 0.232422 22.7818 0.232422 15.9804C0.232422 9.17892 11.8743 3.66525 26.2352 3.66525C40.5962 3.66525 52.2381 9.17892 52.2381 15.9804Z" fill="#836FFD"/>
<path d="M52.2381 15.256C52.2381 22.0574 40.5962 27.5711 26.2352 27.5711C11.8743 27.5711 0.232422 22.0574 0.232422 15.256C0.232422 8.4545 11.8743 2.94083 26.2352 2.94083C40.5962 2.94083 52.2381 8.4545 52.2381 15.256Z" fill="#836FFD"/>
<path d="M52.2381 14.5315C52.2381 21.333 40.5962 26.8467 26.2352 26.8467C11.8743 26.8467 0.232422 21.333 0.232422 14.5315C0.232422 7.73008 11.8743 2.21642 26.2352 2.21642C40.5962 2.21642 52.2381 7.73008 52.2381 14.5315Z" fill="#836FFD"/>
<path d="M52.2381 13.8071C52.2381 20.6086 40.5962 26.1222 26.2352 26.1222C11.8743 26.1222 0.232422 20.6086 0.232422 13.8071C0.232422 7.00566 11.8743 1.492 26.2352 1.492C40.5962 1.492 52.2381 7.00566 52.2381 13.8071Z" fill="#836FFD"/>
<path d="M52.2381 13.0827C52.2381 19.8841 40.5962 25.3978 26.2352 25.3978C11.8743 25.3978 0.232422 19.8841 0.232422 13.0827C0.232422 6.28124 11.8743 0.767578 26.2352 0.767578C40.5962 0.767578 52.2381 6.28124 52.2381 13.0827Z" fill="#836FFD"/>
<ellipse cx="26.2352" cy="12.5108" rx="26.0028" ry="11.7432" fill="white"/>
<path d="M32.1065 14.6321C32.1065 15.2552 31.7087 15.7822 30.913 16.213C30.1315 16.6361 29.073 16.9092 27.7374 17.0322V17.69C27.7374 17.8977 27.6166 18.0631 27.3751 18.1862C27.1478 18.3169 26.8423 18.3823 26.4587 18.3823C26.0893 18.3823 25.7838 18.3169 25.5422 18.1862C25.3007 18.0631 25.1799 17.8977 25.1799 17.69V17.0669C24.3985 17.0284 23.6383 16.9399 22.8995 16.8015C22.1748 16.663 21.5355 16.4861 20.9813 16.2707C20.754 16.1937 20.5906 16.1091 20.4912 16.0168C20.4059 15.9168 20.3633 15.7937 20.3633 15.6476C20.3633 15.4552 20.4698 15.286 20.683 15.1398C20.9103 14.9937 21.1661 14.9206 21.4502 14.9206C21.7202 14.9206 22.0541 14.9821 22.4519 15.1052C23.1055 15.3129 23.7236 15.4668 24.3061 15.5668C24.9029 15.6591 25.5209 15.7053 26.1603 15.7053C27.0128 15.7053 27.6664 15.6206 28.121 15.4514C28.5757 15.2745 28.803 15.0283 28.803 14.7129C28.803 14.5206 28.6681 14.3629 28.3981 14.2398C28.1424 14.1167 27.8227 14.0206 27.439 13.9513C27.0554 13.8821 26.5013 13.7936 25.7767 13.6859C24.7252 13.5398 23.8585 13.3936 23.1765 13.2474C22.4945 13.1013 21.9049 12.8705 21.4076 12.5551C20.9245 12.2397 20.683 11.8166 20.683 11.2858C20.683 10.6627 21.0879 10.128 21.8978 9.68187C22.7219 9.23569 23.7946 8.95106 25.116 8.82798V8.17025C25.116 7.96255 25.2367 7.79715 25.4783 7.67407C25.7198 7.54329 26.0253 7.47791 26.3947 7.47791C26.7784 7.47791 27.0838 7.54329 27.3112 7.67407C27.5527 7.79715 27.6735 7.96255 27.6735 8.17025V8.8049C28.9522 8.89721 30.1528 9.15876 31.2753 9.58955C31.4884 9.66648 31.6376 9.75495 31.7229 9.85495C31.8223 9.95496 31.8721 10.0742 31.8721 10.2127C31.8721 10.405 31.7584 10.5742 31.5311 10.7204C31.3179 10.8665 31.0693 10.9396 30.7851 10.9396C30.6288 10.9396 30.4796 10.9281 30.3375 10.905C30.2097 10.8819 30.025 10.8319 29.7834 10.755C29.2009 10.555 28.6752 10.405 28.2063 10.305C27.7516 10.205 27.1904 10.155 26.5226 10.155C25.7554 10.155 25.1373 10.2473 24.6684 10.4319C24.2137 10.6165 23.9864 10.8627 23.9864 11.1704C23.9864 11.3858 24.1214 11.5627 24.3914 11.7012C24.6613 11.832 25.0023 11.9358 25.4144 12.0128C25.8264 12.0897 26.4018 12.1781 27.1407 12.2782C28.1779 12.4166 29.0233 12.5589 29.6769 12.7051C30.3447 12.8436 30.913 13.0705 31.3819 13.3859C31.8649 13.6936 32.1065 14.109 32.1065 14.6321Z" fill="#5236FF"/>
</svg>
