<svg width="52" height="58" viewBox="0 0 52 58" fill="none" xmlns="http://www.w3.org/2000/svg">
<circle cx="26.0992" cy="26.2974" r="25.6529" fill="#5236FF"/>
<mask id="mask0_1_4042" style="mask-type:alpha" maskUnits="userSpaceOnUse" x="0" y="0" width="52" height="52">
<circle cx="26.0992" cy="26.2974" r="25.6529" fill="url(#paint0_linear_1_4042)"/>
</mask>
<g mask="url(#mask0_1_4042)">
</g>
<path d="M46.3958 57.7134C46.4198 54.4312 45.9082 51.1772 44.8903 48.1372C43.8723 45.0972 42.3679 42.3308 40.4629 39.9958C38.5579 37.6609 36.2897 35.8031 33.7877 34.5287C31.2857 33.2543 28.599 32.5881 25.8809 32.5682C23.1628 32.5483 20.4666 33.175 17.9462 34.4127C15.4258 35.6504 13.1306 37.4747 11.1917 39.7815C9.25271 42.0883 7.70794 44.8324 6.64557 47.8572C5.5832 50.8819 5.02403 54.1281 5 57.4103L46.3958 57.7134Z" fill="#E1E3F9"/>
<path d="M35.7186 19.8842C35.7186 25.1971 31.4116 29.5041 26.0988 29.5041C20.7859 29.5041 16.4789 25.1971 16.4789 19.8842C16.4789 14.5714 20.7859 10.2644 26.0988 10.2644C31.4116 10.2644 35.7186 14.5714 35.7186 19.8842Z" fill="#E1E3F9"/>
<defs>
<linearGradient id="paint0_linear_1_4042" x1="4.45455" y1="5.85527" x2="50.1488" y2="53.1528" gradientUnits="userSpaceOnUse">
<stop stop-color="#5860C2"/>
<stop offset="1" stop-color="#292F8D"/>
</linearGradient>
</defs>
</svg>
