<svg width="18" height="18" viewBox="0 0 18 18" fill="none" xmlns="http://www.w3.org/2000/svg">
<path d="M7.09148 1.46391C7.67719 -0.405464 10.3228 -0.405461 10.9085 1.46392L11.5917 3.64429C11.853 4.47852 12.626 5.04632 13.5002 5.04632H15.8612C17.781 5.04632 18.5981 7.48841 17.0648 8.64367L15.031 10.176C14.3554 10.6851 14.0731 11.5641 14.326 12.3714L15.073 14.7557C15.6544 16.6112 13.514 18.1212 11.961 16.9511L10.2035 15.6269C9.49098 15.09 8.50902 15.09 7.79647 15.6269L6.03899 16.9511C4.48602 18.1211 2.34559 16.6112 2.92695 14.7557L3.67402 12.3714C3.92693 11.5641 3.64464 10.6851 2.96902 10.176L0.93523 8.64367C-0.598059 7.48841 0.218965 5.04632 2.13876 5.04632H4.49982C5.37404 5.04632 6.14696 4.47852 6.40834 3.64429L7.09148 1.46391Z" fill="#FFB422"/>
</svg>
